<mxfile host="drawio-plugin" modified="2022-01-22T17:58:52.687Z" agent="5.0 (Windows NT 6.2; Win64; x64) AppleWebKit/537.36 (KHTML, like Gecko) Chrome/89.0.4389.114 Safari/537.36" etag="_6jO5FV1XpjTtmemBDVP" version="15.5.4" type="embed"><diagram id="C5RBs43oDa-KdzZeNtuy" name="出入库流程"><mxGraphModel dx="362" dy="259" grid="1" gridSize="10" guides="1" tooltips="1" connect="1" arrows="1" fold="1" page="1" pageScale="1" pageWidth="1169" pageHeight="1654" math="0" shadow="0"><root><mxCell id="WIyWlLk6GJQsqaUBKTNV-0"/><mxCell id="WIyWlLk6GJQsqaUBKTNV-1" parent="WIyWlLk6GJQsqaUBKTNV-0"/><mxCell id="1" value="" style="edgeStyle=orthogonalEdgeStyle;rounded=0;orthogonalLoop=1;jettySize=auto;html=1;" edge="1" parent="WIyWlLk6GJQsqaUBKTNV-1" source="BxBbRvxjBFWGLJxQWWaA-0" target="BxBbRvxjBFWGLJxQWWaA-5"><mxGeometry relative="1" as="geometry"/></mxCell><mxCell id="3" value="" style="edgeStyle=orthogonalEdgeStyle;rounded=0;orthogonalLoop=1;jettySize=auto;html=1;" edge="1" parent="WIyWlLk6GJQsqaUBKTNV-1" source="BxBbRvxjBFWGLJxQWWaA-0" target="2"><mxGeometry relative="1" as="geometry"/></mxCell><mxCell id="5" value="" style="edgeStyle=orthogonalEdgeStyle;rounded=0;orthogonalLoop=1;jettySize=auto;html=1;" edge="1" parent="WIyWlLk6GJQsqaUBKTNV-1" source="BxBbRvxjBFWGLJxQWWaA-0" target="4"><mxGeometry relative="1" as="geometry"/></mxCell><mxCell id="BxBbRvxjBFWGLJxQWWaA-0" value="申请人" style="ellipse;whiteSpace=wrap;html=1;aspect=fixed;fillColor=#f8cecc;strokeColor=#b85450;align=center;" parent="WIyWlLk6GJQsqaUBKTNV-1" vertex="1"><mxGeometry x="570" y="570" width="60" height="60" as="geometry"/></mxCell><mxCell id="BxBbRvxjBFWGLJxQWWaA-5" value="出库" style="rounded=0;whiteSpace=wrap;html=1;fillColor=#dae8fc;strokeColor=#6c8ebf;" parent="WIyWlLk6GJQsqaUBKTNV-1" vertex="1"><mxGeometry x="480" y="585" width="50" height="30" as="geometry"/></mxCell><mxCell id="2" value="借" style="rounded=0;whiteSpace=wrap;html=1;fillColor=#dae8fc;strokeColor=#6c8ebf;" vertex="1" parent="WIyWlLk6GJQsqaUBKTNV-1"><mxGeometry x="575.0000000000001" y="500" width="50" height="30" as="geometry"/></mxCell><mxCell id="4" value="入库" style="rounded=0;whiteSpace=wrap;html=1;fillColor=#dae8fc;strokeColor=#6c8ebf;" vertex="1" parent="WIyWlLk6GJQsqaUBKTNV-1"><mxGeometry x="670.0000000000001" y="585" width="50" height="30" as="geometry"/></mxCell></root></mxGraphModel></diagram></mxfile>